<svg width="33" height="33" viewBox="0 0 33 33" fill="none" xmlns="http://www.w3.org/2000/svg">
<g id="Icon" clip-path="url(#clip0_30_4685)">
<path id="Vector" d="M8.75 10.73C7.375 10.73 6.19792 10.2404 5.21875 9.26123C4.23958 8.28206 3.75 7.10498 3.75 5.72998C3.75 4.35498 4.23958 3.1779 5.21875 2.19873C6.19792 1.21956 7.375 0.72998 8.75 0.72998C10.125 0.72998 11.3021 1.21956 12.2812 2.19873C13.2604 3.1779 13.75 4.35498 13.75 5.72998C13.75 7.10498 13.2604 8.28206 12.2812 9.26123C11.3021 10.2404 10.125 10.73 8.75 10.73ZM8.75 2.72998C7.91667 2.72998 7.20833 3.02165 6.625 3.60498C6.04167 4.18831 5.75 4.89665 5.75 5.72998C5.75 6.56331 6.04167 7.27165 6.625 7.85498C7.20833 8.43831 7.91667 8.72998 8.75 8.72998C9.58333 8.72998 10.2917 8.43831 10.875 7.85498C11.4583 7.27165 11.75 6.56331 11.75 5.72998C11.75 4.89665 11.4583 4.18831 10.875 3.60498C10.2917 3.02165 9.58333 2.72998 8.75 2.72998ZM5.75 32.73C5.5 32.73 5.27604 32.6466 5.07812 32.48C4.88021 32.3133 4.77083 32.0946 4.75 31.8237L3.84375 22.73H1.75C1.47917 22.73 1.24479 22.631 1.04688 22.4331C0.848958 22.2352 0.75 22.0008 0.75 21.73V18.73C0.75 17.6258 0.958333 16.5841 1.375 15.605C1.79167 14.6466 2.36458 13.8029 3.09375 13.0737C3.82292 12.3446 4.66667 11.7716 5.625 11.355C6.60417 10.9383 7.64583 10.73 8.75 10.73C9.85417 10.73 10.8958 10.9383 11.875 11.355C12.8333 11.7716 13.6771 12.3446 14.4062 13.0737C15.1354 13.8029 15.7083 14.6466 16.125 15.605C16.5417 16.5841 16.75 17.6258 16.75 18.73V21.73C16.75 22.0008 16.651 22.2352 16.4531 22.4331C16.2552 22.631 16.0208 22.73 15.75 22.73H13.6562L12.75 31.8237C12.7292 32.0946 12.6198 32.3133 12.4219 32.48C12.224 32.6466 12 32.73 11.75 32.73H5.75ZM10.8438 30.73L11.75 21.6362C11.7708 21.3654 11.8802 21.1466 12.0781 20.98C12.276 20.8133 12.5 20.73 12.75 20.73H14.75V18.73C14.75 17.0841 14.1615 15.6727 12.9844 14.4956C11.8073 13.3185 10.3958 12.73 8.75 12.73C7.10417 12.73 5.69271 13.3185 4.51562 14.4956C3.33854 15.6727 2.75 17.0841 2.75 18.73V20.73H4.75C5 20.73 5.22396 20.8133 5.42188 20.98C5.61979 21.1466 5.72917 21.3654 5.75 21.6362L6.65625 30.73H10.8438ZM20.75 32.73C20.5 32.73 20.2812 32.6519 20.0938 32.4956C19.9062 32.3394 19.7917 32.1362 19.75 31.8862L18.9062 26.73H17.75C17.4792 26.73 17.2448 26.631 17.0469 26.4331C16.849 26.2352 16.75 26.0008 16.75 25.73C16.75 25.4591 16.849 25.2248 17.0469 25.0269C17.2448 24.8289 17.4792 24.73 17.75 24.73H19.75C20 24.73 20.2188 24.8081 20.4062 24.9644C20.5938 25.1206 20.7083 25.3237 20.75 25.5737L21.5938 30.73H25.9062L26.75 25.5737C26.7917 25.3237 26.9062 25.1206 27.0938 24.9644C27.2812 24.8081 27.5 24.73 27.75 24.73H30.375L27.8125 17.0425C27.2083 15.23 26.5885 14.0581 25.9531 13.5269C25.3177 12.9956 24.5833 12.73 23.75 12.73C23.0208 12.73 22.3542 12.9435 21.75 13.3706C21.1458 13.7977 20.7292 14.355 20.5 15.0425C20.4167 15.2508 20.2917 15.4175 20.125 15.5425C19.9583 15.6675 19.7604 15.73 19.5312 15.73C19.4896 15.73 19.4375 15.7248 19.375 15.7144C19.3125 15.7039 19.2604 15.6883 19.2188 15.6675C18.9479 15.5841 18.7552 15.4175 18.6406 15.1675C18.526 14.9175 18.5104 14.6675 18.5938 14.4175C18.9688 13.3133 19.6302 12.4227 20.5781 11.7456C21.526 11.0685 22.5833 10.73 23.75 10.73C25.5417 10.73 26.8646 11.3237 27.7188 12.5112C28.5729 13.6987 29.2292 15.0008 29.6875 16.4175L32.6875 25.4175C32.75 25.5633 32.7656 25.7144 32.7344 25.8706C32.7031 26.0269 32.6458 26.1779 32.5625 26.3237C32.4792 26.4487 32.3646 26.5477 32.2188 26.6206C32.0729 26.6935 31.9167 26.73 31.75 26.73H28.5938L27.75 31.8862C27.7083 32.1362 27.5938 32.3394 27.4062 32.4956C27.2188 32.6519 27 32.73 26.75 32.73H20.75ZM23.75 10.73C22.375 10.73 21.1979 10.2404 20.2188 9.26123C19.2396 8.28206 18.75 7.10498 18.75 5.72998C18.75 4.35498 19.2396 3.1779 20.2188 2.19873C21.1979 1.21956 22.375 0.72998 23.75 0.72998C25.125 0.72998 26.3021 1.21956 27.2812 2.19873C28.2604 3.1779 28.75 4.35498 28.75 5.72998C28.75 7.10498 28.2604 8.28206 27.2812 9.26123C26.3021 10.2404 25.125 10.73 23.75 10.73ZM23.75 2.72998C22.9167 2.72998 22.2083 3.02165 21.625 3.60498C21.0417 4.18831 20.75 4.89665 20.75 5.72998C20.75 6.56331 21.0417 7.27165 21.625 7.85498C22.2083 8.43831 22.9167 8.72998 23.75 8.72998C24.5833 8.72998 25.2917 8.43831 25.875 7.85498C26.4583 7.27165 26.75 6.56331 26.75 5.72998C26.75 4.89665 26.4583 4.18831 25.875 3.60498C25.2917 3.02165 24.5833 2.72998 23.75 2.72998Z" fill="#3B4249"/>
</g>
<defs>
<clipPath id="clip0_30_4685">
<rect width="32" height="32" fill="white" transform="matrix(1 0 0 -1 0.75 32.73)"/>
</clipPath>
</defs>
</svg>
