<svg width="33" height="33" viewBox="0 0 33 33" fill="none" xmlns="http://www.w3.org/2000/svg">
<g id="Icon" clip-path="url(#clip0_30_4692)">
<path id="Vector" d="M29 32.73C28.7084 32.73 28.4688 32.631 28.2813 32.4331C28.0938 32.2352 28 32.0008 28 31.73V9.72998C28 8.77165 27.8125 7.8654 27.4375 7.01123C27.0625 6.15706 26.5573 5.41227 25.9219 4.77686C25.2865 4.14144 24.5521 3.64665 23.7188 3.29248C22.8646 2.91748 21.9584 2.72998 21 2.72998C20.1042 2.72998 19.2605 2.88623 18.4688 3.19873C17.6771 3.51123 16.974 3.93831 16.3594 4.47998C15.7448 5.02165 15.2292 5.66748 14.8125 6.41748C14.4167 7.14665 14.1667 7.94873 14.0625 8.82373C14.8959 8.94873 15.6771 9.21956 16.4063 9.63623C17.1146 10.0529 17.7396 10.5685 18.2813 11.1831C18.823 11.7977 19.2396 12.4904 19.5313 13.2612C19.8438 14.0529 20 14.8758 20 15.73C20 16.0008 19.9011 16.2352 19.7032 16.4331C19.5052 16.631 19.2709 16.73 19 16.73H7.00003C6.70837 16.73 6.46878 16.631 6.28128 16.4331C6.09378 16.2352 6.00003 16.0008 6.00003 15.73C6.00003 14.855 6.14587 14.0216 6.43753 13.23C6.75003 12.4383 7.17712 11.7352 7.71878 11.1206C8.26045 10.506 8.90628 10.0008 9.65628 9.60498C10.3855 9.18831 11.1771 8.91748 12.0313 8.79248C12.1563 7.66748 12.4688 6.60498 12.9688 5.60498C13.4896 4.62581 14.1511 3.77686 14.9532 3.05811C15.7552 2.33936 16.6667 1.77165 17.6875 1.35498C18.7292 0.938314 19.8334 0.72998 21 0.72998C22.2292 0.72998 23.3959 0.969564 24.5 1.44873C25.5834 1.90706 26.5313 2.54769 27.3438 3.37061C28.1563 4.19352 28.8021 5.14665 29.2813 6.22998C29.7605 7.31331 30 8.47998 30 9.72998V31.73C30 32.0008 29.9011 32.2352 29.7032 32.4331C29.5052 32.631 29.2709 32.73 29 32.73ZM17.875 14.73C17.6459 13.5841 17.073 12.631 16.1563 11.8706C15.2396 11.1102 14.1875 10.73 13 10.73C11.8125 10.73 10.7552 11.1102 9.82816 11.8706C8.90108 12.631 8.32295 13.5841 8.09378 14.73H17.875ZM14.5 21.23C14.5 21.6466 14.349 22.0008 14.0469 22.2925C13.7448 22.5841 13.3959 22.73 13 22.73C12.5834 22.73 12.2292 22.5841 11.9375 22.2925C11.6459 22.0008 11.5 21.6466 11.5 21.23C11.5 20.8133 11.6459 20.4591 11.9375 20.1675C12.2292 19.8758 12.5834 19.73 13 19.73C13.3959 19.73 13.7448 19.8758 14.0469 20.1675C14.349 20.4591 14.5 20.8133 14.5 21.23ZM14.5 29.23C14.5 29.6466 14.349 30.0008 14.0469 30.2925C13.7448 30.5841 13.3959 30.73 13 30.73C12.5834 30.73 12.2292 30.5841 11.9375 30.2925C11.6459 30.0008 11.5 29.6466 11.5 29.23C11.5 28.8133 11.6459 28.4591 11.9375 28.1675C12.2292 27.8758 12.5834 27.73 13 27.73C13.3959 27.73 13.7448 27.8758 14.0469 28.1675C14.349 28.4591 14.5 28.8133 14.5 29.23ZM18.5 22.73C18.1667 22.73 17.8698 22.6362 17.6094 22.4487C17.349 22.2612 17.1667 22.0112 17.0625 21.6987C17.0625 21.6987 17.0625 21.6935 17.0625 21.6831C17.0625 21.6727 17.0625 21.6571 17.0625 21.6362C16.9375 21.2612 16.9688 20.8914 17.1563 20.5269C17.3438 20.1623 17.6355 19.9175 18.0313 19.7925C18.0938 19.7716 18.1667 19.756 18.25 19.7456C18.3334 19.7352 18.4167 19.73 18.5 19.73C18.8125 19.73 19.099 19.8237 19.3594 20.0112C19.6198 20.1987 19.8021 20.4487 19.9063 20.7612C20.0313 21.1571 20 21.5373 19.8125 21.9019C19.625 22.2664 19.3438 22.5216 18.9688 22.6675C18.8855 22.6883 18.8021 22.7039 18.7188 22.7144C18.6355 22.7248 18.5625 22.73 18.5 22.73ZM20.9688 30.3237C20.6563 30.3237 20.3698 30.2352 20.1094 30.0581C19.849 29.881 19.6667 29.6362 19.5625 29.3237C19.5625 29.3237 19.5573 29.3185 19.5469 29.3081C19.5365 29.2977 19.5313 29.2925 19.5313 29.2925C19.4063 28.8966 19.4375 28.5164 19.625 28.1519C19.8125 27.7873 20.1042 27.5425 20.5 27.4175C20.5834 27.3966 20.6615 27.3758 20.7344 27.355C20.8073 27.3341 20.8855 27.3237 20.9688 27.3237C21.0938 27.3237 21.2136 27.3394 21.3282 27.3706C21.4427 27.4019 21.5521 27.4487 21.6563 27.5112C21.823 27.5946 21.974 27.7091 22.1094 27.855C22.2448 28.0008 22.3438 28.1675 22.4063 28.355C22.5313 28.7508 22.5 29.1362 22.3125 29.5112C22.125 29.8862 21.8334 30.1362 21.4375 30.2612C21.3542 30.2821 21.2761 30.2977 21.2032 30.3081C21.1302 30.3185 21.0521 30.3237 20.9688 30.3237ZM7.50003 22.73C7.4167 22.73 7.33337 22.7248 7.25003 22.7144C7.1667 22.7039 7.09378 22.6883 7.03128 22.6675C6.63545 22.5216 6.34378 22.2664 6.15628 21.9019C5.96878 21.5373 5.93753 21.1571 6.06253 20.7612C6.1667 20.4487 6.34899 20.1987 6.60941 20.0112C6.86983 19.8237 7.1667 19.73 7.50003 19.73C7.56253 19.73 7.63545 19.7352 7.71878 19.7456C7.80212 19.756 7.87503 19.7716 7.93753 19.7925C8.33337 19.9175 8.62503 20.1623 8.81253 20.5269C9.00003 20.8914 9.03128 21.2716 8.90628 21.6675C8.90628 21.6675 8.90628 21.6727 8.90628 21.6831C8.90628 21.6935 8.90628 21.6987 8.90628 21.6987C8.80212 22.0112 8.61983 22.2612 8.35941 22.4487C8.09899 22.6362 7.81253 22.73 7.50003 22.73ZM5.00003 30.3237C4.93753 30.3237 4.86462 30.3185 4.78128 30.3081C4.69795 30.2977 4.62503 30.2821 4.56253 30.2612C4.3542 30.1987 4.17712 30.105 4.03128 29.98C3.88545 29.855 3.77087 29.6987 3.68753 29.5112C3.58337 29.3446 3.52608 29.1623 3.51566 28.9644C3.50524 28.7664 3.53128 28.5737 3.59378 28.3862C3.67712 28.0737 3.8542 27.8185 4.12503 27.6206C4.39587 27.4227 4.68753 27.3237 5.00003 27.3237C5.08337 27.3237 5.16149 27.3289 5.23441 27.3394C5.30733 27.3498 5.37503 27.3758 5.43753 27.4175C5.43753 27.4175 5.44274 27.4175 5.45316 27.4175C5.46358 27.4175 5.46878 27.4175 5.46878 27.4175C5.86462 27.5425 6.15628 27.7873 6.34378 28.1519C6.53128 28.5164 6.56253 28.8966 6.43753 29.2925C6.33337 29.605 6.15108 29.855 5.89066 30.0425C5.63024 30.23 5.33337 30.3237 5.00003 30.3237Z" fill="#3B4249"/>
</g>
<defs>
<clipPath id="clip0_30_4692">
<rect width="32" height="32" fill="white" transform="matrix(1 0 0 -1 0.25 32.73)"/>
</clipPath>
</defs>
</svg>
