<svg width="33" height="33" viewBox="0 0 33 33" fill="none" xmlns="http://www.w3.org/2000/svg">
<g id="Icon" clip-path="url(#clip0_30_4689)">
<path id="Vector" d="M4.25 32.73C3.41667 32.73 2.70833 32.4383 2.125 31.855C1.54167 31.2716 1.25 30.5633 1.25 29.73V3.72998C1.25 2.89665 1.54167 2.18831 2.125 1.60498C2.70833 1.02165 3.41667 0.72998 4.25 0.72998H28.25C29.0833 0.72998 29.7917 1.02165 30.375 1.60498C30.9583 2.18831 31.25 2.89665 31.25 3.72998V29.73C31.25 30.5633 30.9583 31.2716 30.375 31.855C29.7917 32.4383 29.0833 32.73 28.25 32.73H4.25ZM3.25 29.73C3.25 30.0008 3.34896 30.2352 3.54688 30.4331C3.74479 30.631 3.97917 30.73 4.25 30.73H28.25C28.5208 30.73 28.7552 30.631 28.9531 30.4331C29.151 30.2352 29.25 30.0008 29.25 29.73V18.73H3.25V29.73ZM29.25 16.73V12.73H3.25V16.73H29.25ZM29.25 10.73V3.72998C29.25 3.45915 29.151 3.22477 28.9531 3.02686C28.7552 2.82894 28.5208 2.72998 28.25 2.72998H4.25C3.97917 2.72998 3.74479 2.82894 3.54688 3.02686C3.34896 3.22477 3.25 3.45915 3.25 3.72998V10.73H5.4375C5.375 10.5633 5.32812 10.3966 5.29688 10.23C5.26562 10.0633 5.25 9.89665 5.25 9.72998V7.72998C5.25 6.89665 5.54167 6.18831 6.125 5.60498C6.70833 5.02165 7.41667 4.72998 8.25 4.72998H12.25C13.0833 4.72998 13.7917 5.02165 14.375 5.60498C14.9583 6.18831 15.25 6.89665 15.25 7.72998V9.72998C15.25 9.89665 15.2344 10.0633 15.2031 10.23C15.1719 10.3966 15.125 10.5633 15.0625 10.73H17.4375C17.375 10.5633 17.3281 10.3966 17.2969 10.23C17.2656 10.0633 17.25 9.89665 17.25 9.72998V7.72998C17.25 6.89665 17.5417 6.18831 18.125 5.60498C18.7083 5.02165 19.4167 4.72998 20.25 4.72998H24.25C25.0833 4.72998 25.7917 5.02165 26.375 5.60498C26.9583 6.18831 27.25 6.89665 27.25 7.72998V9.72998C27.25 9.89665 27.2344 10.0633 27.2031 10.23C27.1719 10.3966 27.125 10.5633 27.0625 10.73H29.25ZM20.25 6.72998C19.9792 6.72998 19.7448 6.82894 19.5469 7.02686C19.349 7.22477 19.25 7.45915 19.25 7.72998V9.72998C19.25 10.0008 19.349 10.2352 19.5469 10.4331C19.7448 10.631 19.9792 10.73 20.25 10.73H24.25C24.5208 10.73 24.7552 10.631 24.9531 10.4331C25.151 10.2352 25.25 10.0008 25.25 9.72998V7.72998C25.25 7.45915 25.151 7.22477 24.9531 7.02686C24.7552 6.82894 24.5208 6.72998 24.25 6.72998H20.25ZM8.25 6.72998C7.97917 6.72998 7.74479 6.82894 7.54688 7.02686C7.34896 7.22477 7.25 7.45915 7.25 7.72998V9.72998C7.25 10.0008 7.34896 10.2352 7.54688 10.4331C7.74479 10.631 7.97917 10.73 8.25 10.73H12.25C12.5208 10.73 12.7552 10.631 12.9531 10.4331C13.151 10.2352 13.25 10.0008 13.25 9.72998V7.72998C13.25 7.45915 13.151 7.22477 12.9531 7.02686C12.7552 6.82894 12.5208 6.72998 12.25 6.72998H8.25Z" fill="#3B4249"/>
</g>
<defs>
<clipPath id="clip0_30_4689">
<rect width="32" height="32" fill="white" transform="matrix(1 0 0 -1 0.25 32.73)"/>
</clipPath>
</defs>
</svg>
