<svg width="15" height="15" viewBox="0 0 15 15" fill="none" xmlns="http://www.w3.org/2000/svg">
<g id="Icon" clip-path="url(#clip0_30_4940)">
<path id="Vector" d="M1.8125 14.8799C1.44792 14.8799 1.13802 14.7523 0.882812 14.4971C0.627604 14.2419 0.5 13.932 0.5 13.5674V3.94238C0.5 3.5778 0.627604 3.2679 0.882812 3.0127C1.13802 2.75749 1.44792 2.62988 1.8125 2.62988H4V1.31738C4 1.19889 4.04329 1.09635 4.12988 1.00977C4.21647 0.923177 4.31901 0.879883 4.4375 0.879883C4.55599 0.879883 4.65853 0.923177 4.74512 1.00977C4.83171 1.09635 4.875 1.19889 4.875 1.31738V2.62988H10.125V1.31738C10.125 1.19889 10.1683 1.09635 10.2549 1.00977C10.3415 0.923177 10.444 0.879883 10.5625 0.879883C10.681 0.879883 10.7835 0.923177 10.8701 1.00977C10.9567 1.09635 11 1.19889 11 1.31738V2.62988H13.1875C13.5521 2.62988 13.862 2.75749 14.1172 3.0127C14.3724 3.2679 14.5 3.5778 14.5 3.94238V13.5674C14.5 13.932 14.3724 14.2419 14.1172 14.4971C13.862 14.7523 13.5521 14.8799 13.1875 14.8799H1.8125ZM1.375 13.5674C1.375 13.6859 1.41829 13.7884 1.50488 13.875C1.59147 13.9616 1.69401 14.0049 1.8125 14.0049H13.1875C13.306 14.0049 13.4085 13.9616 13.4951 13.875C13.5817 13.7884 13.625 13.6859 13.625 13.5674V7.00488H1.375V13.5674ZM13.625 6.12988V3.94238C13.625 3.82389 13.5817 3.72135 13.4951 3.63477C13.4085 3.54818 13.306 3.50488 13.1875 3.50488H11V4.37988C11 4.49837 10.9567 4.60091 10.8701 4.6875C10.7835 4.77409 10.681 4.81738 10.5625 4.81738C10.444 4.81738 10.3415 4.77409 10.2549 4.6875C10.1683 4.60091 10.125 4.49837 10.125 4.37988V3.50488H4.875V4.37988C4.875 4.49837 4.83171 4.60091 4.74512 4.6875C4.65853 4.77409 4.55599 4.81738 4.4375 4.81738C4.31901 4.81738 4.21647 4.77409 4.12988 4.6875C4.04329 4.60091 4 4.49837 4 4.37988V3.50488H1.8125C1.69401 3.50488 1.59147 3.54818 1.50488 3.63477C1.41829 3.72135 1.375 3.82389 1.375 3.94238V6.12988H13.625ZM4.4375 8.97363C4.4375 9.15592 4.3737 9.31087 4.24609 9.43848C4.11849 9.56608 3.96354 9.62988 3.78125 9.62988C3.59896 9.62988 3.44401 9.56608 3.31641 9.43848C3.1888 9.31087 3.125 9.15592 3.125 8.97363C3.125 8.79134 3.1888 8.63639 3.31641 8.50879C3.44401 8.38119 3.59896 8.31738 3.78125 8.31738C3.96354 8.31738 4.11849 8.38119 4.24609 8.50879C4.3737 8.63639 4.4375 8.79134 4.4375 8.97363ZM4.4375 12.0361C4.4375 12.2184 4.3737 12.3734 4.24609 12.501C4.11849 12.6286 3.96354 12.6924 3.78125 12.6924C3.59896 12.6924 3.44401 12.6286 3.31641 12.501C3.1888 12.3734 3.125 12.2184 3.125 12.0361C3.125 11.8538 3.1888 11.6989 3.31641 11.5713C3.44401 11.4437 3.59896 11.3799 3.78125 11.3799C3.96354 11.3799 4.11849 11.4437 4.24609 11.5713C4.3737 11.6989 4.4375 11.8538 4.4375 12.0361ZM8.15625 8.97363C8.15625 9.15592 8.09245 9.31087 7.96484 9.43848C7.83724 9.56608 7.68229 9.62988 7.5 9.62988C7.31771 9.62988 7.16276 9.56608 7.03516 9.43848C6.90755 9.31087 6.84375 9.15592 6.84375 8.97363C6.84375 8.79134 6.90755 8.63639 7.03516 8.50879C7.16276 8.38119 7.31771 8.31738 7.5 8.31738C7.68229 8.31738 7.83724 8.38119 7.96484 8.50879C8.09245 8.63639 8.15625 8.79134 8.15625 8.97363ZM8.15625 12.0361C8.15625 12.2184 8.09245 12.3734 7.96484 12.501C7.83724 12.6286 7.68229 12.6924 7.5 12.6924C7.31771 12.6924 7.16276 12.6286 7.03516 12.501C6.90755 12.3734 6.84375 12.2184 6.84375 12.0361C6.84375 11.8538 6.90755 11.6989 7.03516 11.5713C7.16276 11.4437 7.31771 11.3799 7.5 11.3799C7.68229 11.3799 7.83724 11.4437 7.96484 11.5713C8.09245 11.6989 8.15625 11.8538 8.15625 12.0361ZM11.875 8.97363C11.875 9.15592 11.8112 9.31087 11.6836 9.43848C11.556 9.56608 11.401 9.62988 11.2188 9.62988C11.0365 9.62988 10.8815 9.56608 10.7539 9.43848C10.6263 9.31087 10.5625 9.15592 10.5625 8.97363C10.5625 8.79134 10.6263 8.63639 10.7539 8.50879C10.8815 8.38119 11.0365 8.31738 11.2188 8.31738C11.401 8.31738 11.556 8.38119 11.6836 8.50879C11.8112 8.63639 11.875 8.79134 11.875 8.97363ZM11.2188 12.6924C11.0365 12.6924 10.8815 12.6286 10.7539 12.501C10.6263 12.3734 10.5625 12.2184 10.5625 12.0361C10.5625 11.8538 10.6263 11.6989 10.7539 11.5713C10.8815 11.4437 11.0365 11.3799 11.2188 11.3799C11.2188 11.3799 11.221 11.3799 11.2256 11.3799C11.2301 11.3799 11.237 11.3799 11.2461 11.3799C11.2461 11.3799 11.2484 11.3799 11.2529 11.3799C11.2575 11.3799 11.2598 11.3799 11.2598 11.3799C11.4329 11.389 11.5788 11.4574 11.6973 11.585C11.8158 11.7126 11.875 11.863 11.875 12.0361C11.875 12.2184 11.8112 12.3734 11.6836 12.501C11.556 12.6286 11.401 12.6924 11.2188 12.6924Z" fill="#3B4249"/>
</g>
<defs>
<clipPath id="clip0_30_4940">
<rect width="14" height="14" fill="white" transform="matrix(1 0 0 -1 0.5 14.8799)"/>
</clipPath>
</defs>
</svg>
