<svg width="12" height="13" viewBox="0 0 12 13" fill="none" xmlns="http://www.w3.org/2000/svg">
<g id="Icon" clip-path="url(#clip0_30_4803)">
<path id="Vector" d="M3.08179 11.845C3.03052 11.845 2.98474 11.8358 2.94446 11.8175C2.90417 11.7992 2.86572 11.7754 2.8291 11.7461C2.76318 11.6729 2.73022 11.5886 2.73022 11.4934C2.73022 11.3982 2.76318 11.314 2.8291 11.2407L7.84985 6.21997L2.8291 1.19922C2.79248 1.1626 2.76685 1.12231 2.7522 1.07837C2.73755 1.03442 2.73022 0.990479 2.73022 0.946533C2.73022 0.902588 2.73755 0.858643 2.7522 0.814697C2.76685 0.770752 2.79248 0.730469 2.8291 0.693848C2.86572 0.664551 2.90417 0.640747 2.94446 0.622437C2.98474 0.604126 3.03052 0.594971 3.08179 0.594971C3.12573 0.594971 3.16968 0.604126 3.21362 0.622437C3.25757 0.640747 3.29419 0.664551 3.32349 0.693848L8.35522 5.72559C8.48706 5.85742 8.55298 6.02039 8.55298 6.21448C8.55298 6.40857 8.48706 6.5752 8.35522 6.71436L3.32349 11.7461C3.29419 11.7754 3.25757 11.7992 3.21362 11.8175C3.16968 11.8358 3.12573 11.845 3.08179 11.845Z" fill="#3B4249"/>
</g>
<defs>
<clipPath id="clip0_30_4803">
<rect width="11.25" height="12" fill="white" transform="matrix(1 0 0 -1 0.5 12.22)"/>
</clipPath>
</defs>
</svg>
