<svg width="33" height="33" viewBox="0 0 33 33" fill="none" xmlns="http://www.w3.org/2000/svg">
<g id="Icon">
<path id="Vector" d="M6.1875 29.9487C5.91667 29.9487 5.68229 29.855 5.48438 29.6675C5.28646 29.48 5.1875 29.2404 5.1875 28.9487V15.3862L2.90625 17.6675C2.80208 17.7716 2.69271 17.8446 2.57812 17.8862C2.46354 17.9279 2.33333 17.9487 2.1875 17.9487C2.0625 17.9487 1.9375 17.9279 1.8125 17.8862C1.6875 17.8446 1.58333 17.7716 1.5 17.6675C1.39583 17.5633 1.31771 17.4539 1.26562 17.3394C1.21354 17.2248 1.1875 17.0946 1.1875 16.9487C1.1875 16.8237 1.21354 16.6987 1.26562 16.5737C1.31771 16.4487 1.39583 16.3446 1.5 16.2612L14.0625 3.66748C14.3542 3.37581 14.6823 3.15706 15.0469 3.01123C15.4115 2.8654 15.7917 2.79248 16.1875 2.79248C16.5833 2.79248 16.9635 2.8654 17.3281 3.01123C17.6927 3.15706 18.0208 3.37581 18.3125 3.66748L30.9062 16.2612C31.0938 16.4487 31.1875 16.6831 31.1875 16.9644C31.1875 17.2456 31.0938 17.48 30.9062 17.6675C30.8021 17.7716 30.6927 17.8446 30.5781 17.8862C30.4635 17.9279 30.3333 17.9487 30.1875 17.9487C30.0625 17.9487 29.9375 17.9279 29.8125 17.8862C29.6875 17.8446 29.5833 17.7716 29.5 17.6675L27.1875 15.3862V28.9487C27.1875 29.2404 27.0885 29.48 26.8906 29.6675C26.6927 29.855 26.4583 29.9487 26.1875 29.9487H6.1875ZM25.1875 27.9487V13.3862C25.1875 13.3862 24.7604 12.9487 23.9062 12.0737C23.0312 11.2196 22.0729 10.2716 21.0312 9.22998C19.9896 8.18831 19.0417 7.2404 18.1875 6.38623C17.3125 5.51123 16.875 5.07373 16.875 5.07373C16.7917 4.9904 16.6875 4.92269 16.5625 4.87061C16.4375 4.81852 16.3125 4.79248 16.1875 4.79248C16.0625 4.79248 15.9375 4.81852 15.8125 4.87061C15.6875 4.92269 15.5729 4.9904 15.4688 5.07373L7.1875 13.3862V27.9487H11.1875V22.9487C11.1875 21.5737 11.6771 20.3966 12.6562 19.4175C13.6354 18.4383 14.8125 17.9487 16.1875 17.9487C17.5625 17.9487 18.7396 18.4383 19.7188 19.4175C20.6979 20.3966 21.1875 21.5737 21.1875 22.9487V27.9487H25.1875ZM19.1875 27.9487V22.9487C19.1875 22.1362 18.8958 21.4331 18.3125 20.8394C17.7292 20.2456 17.0208 19.9487 16.1875 19.9487C15.3542 19.9487 14.6458 20.2456 14.0625 20.8394C13.4792 21.4331 13.1875 22.1362 13.1875 22.9487V27.9487H19.1875Z" fill="#3B4249"/>
</g>
</svg>
