<svg width="200" height="220" viewBox="0 0 200 220" fill="none" xmlns="http://www.w3.org/2000/svg">
<path d="M88.264 8.73943C88.264 3.91603 84.348 0 79.5246 0C74.6853 0 70.7852 3.91603 70.7852 8.73943C70.7852 13.5628 74.6853 17.4789 79.5246 17.4789C84.348 17.4789 88.264 13.5628 88.264 8.73943Z" fill="#EFEEFE"/>
<path opacity="0.2" d="M88.264 8.73943C88.264 3.91603 84.348 0 79.5246 0C74.6853 0 70.7852 3.91603 70.7852 8.73943C70.7852 13.5628 74.6853 17.4789 79.5246 17.4789C84.348 17.4789 88.264 13.5628 88.264 8.73943Z" fill="#2F6562"/>
<path d="M79.5236 17.4789C82.5641 17.4789 85.2543 15.9189 86.8144 13.547C85.4135 10.9522 82.6755 9.20111 79.5236 9.20111C76.3557 9.20111 73.6177 10.9522 72.2168 13.547C73.7768 15.9189 76.4671 17.4789 79.5236 17.4789Z" fill="#2F6562"/>
<path d="M82.884 4.96666C82.884 3.10416 81.3718 1.60779 79.5252 1.60779C77.6627 1.60779 76.1504 3.10416 76.1504 4.96666C76.1504 6.82916 77.6627 8.34145 79.5252 8.34145C81.3718 8.34145 82.884 6.82916 82.884 4.96666Z" fill="#2F6562"/>
<path d="M95.3953 6.5426V9.05777H97.7991V10.1243H95.3953V12.6714H94.265V10.1243H91.8613V9.05777H94.265V6.5426H95.3953Z" fill="#2F6562"/>
<path d="M103.307 6.73364H103.276L101.859 7.41815L101.572 6.1128L103.562 5.18951H104.995V12.6714H103.307V6.73364Z" fill="#2F6562"/>
<path opacity="0.06" d="M15.7857 196.693C10.6599 191.169 -0.881242 178.721 0.057969 163.152C0.806154 150.592 8.92473 148.586 12.411 132.094C15.8813 115.666 8.89289 112.594 11.806 96.8819C12.2199 94.5737 17.1707 69.6767 35.6843 60.7462C51.1733 53.2803 59.6103 64.9965 77.2961 57.8808C93.5333 51.3541 91.2091 39.5901 107.017 32.8883C122.601 26.2819 145.54 27.4122 157.782 40.9909C169.864 54.4105 167.015 74.8344 166.617 77.7316C164.674 91.6765 158.052 94.717 158.689 107.802C159.167 117.815 163.512 125.52 167.349 132.317C175.292 146.453 180.8 146.565 184.748 156.721C187.47 163.757 191.036 179.708 183.506 187.476C172.507 198.794 144.426 186.059 122.203 194.401C116.09 196.709 112.381 199.16 112.381 199.16C103.196 205.385 101.445 213.058 86.2743 217.578C62.0299 224.822 32.9621 215.222 15.7857 196.693Z" fill="#3EB5AE"/>
<path d="M114.864 185.311C126.692 185.391 136.338 175.855 136.402 164.028L136.689 112.833L62.8253 112.419L62.7139 132.556C62.5388 161.528 85.8917 185.152 114.864 185.311Z" fill="#FFCFCD"/>
<path d="M46.2388 63.6753L47.0347 62.8952C50.2185 59.6956 55.3921 59.6956 58.5918 62.8952L61.505 65.8243C63.9565 68.2599 63.9565 72.2237 61.505 74.6593L59.4037 85.9775L46.2388 72.5261C43.8032 70.0906 43.8032 66.1268 46.2388 63.6753Z" fill="#FFAEAB"/>
<path d="M120.818 45.894V37.6162C121.551 37.6162 122.14 38.2211 122.14 38.9534V44.5568C122.14 45.2891 121.551 45.894 120.818 45.894Z" fill="#653087"/>
<path d="M120.818 56.6551V48.3773C121.551 48.3773 122.14 48.9822 122.14 49.7145V55.3179C122.14 56.0502 121.551 56.6551 120.818 56.6551Z" fill="#653087"/>
<path opacity="0.9" d="M64.2259 134.275H115.453C118.525 134.275 121.024 131.776 121.024 128.704V28.2718C121.024 25.1836 118.525 22.6843 115.453 22.6843H64.2259C61.1536 22.6843 58.6543 25.1836 58.6543 28.2718V128.704C58.6543 131.776 61.1536 134.275 64.2259 134.275Z" fill="#2F6562"/>
<path d="M61.123 124.278H118.558V32.6813H61.123V124.278Z" fill="#D3D5FC"/>
<path d="M95.8242 28.1604C95.8242 27.1734 96.6202 26.3616 97.6071 26.3616C98.5941 26.3616 99.406 27.1734 99.406 28.1604C99.406 29.1474 98.5941 29.9433 97.6071 29.9433C96.6202 29.9433 95.8242 29.1474 95.8242 28.1604Z" fill="white"/>
<path d="M61.123 65.5537V86.2163L114.658 32.6813H93.9795L61.123 65.5537Z" fill="#BBB4F8"/>
<path d="M118.558 44.318L61.123 101.753V124.278H69.4486L118.558 75.1687V44.318Z" fill="#BBB4F8"/>
<path d="M94.5991 125.743H87.2287C85.2866 125.743 83.7266 127.303 83.7266 129.245C83.7266 131.171 85.2866 132.731 87.2287 132.731H94.5991C96.5253 132.731 98.1013 131.171 98.1013 129.245C98.1013 127.303 96.5253 125.743 94.5991 125.743Z" fill="white"/>
<path d="M83.3617 29.1155H93.0562C93.5975 29.1155 94.0273 28.6857 94.0273 28.1604C94.0273 27.6191 93.5975 27.1893 93.0562 27.1893H83.3617C82.8204 27.1893 82.3906 27.6191 82.3906 28.1604C82.3906 28.6857 82.8204 29.1155 83.3617 29.1155Z" fill="white"/>
<mask id="mask0_117_5659" style="mask-type:luminance" maskUnits="userSpaceOnUse" x="0" y="29" width="200" height="191">
<path d="M15.7801 196.69C10.6558 191.164 -0.883727 178.721 0.0538917 163.149C0.811628 150.586 8.9318 148.589 12.4117 132.088C15.8756 115.663 8.89362 112.597 11.7988 96.8788C12.2254 94.5721 17.1698 69.6799 35.6802 60.7494C51.1804 53.2723 59.6046 64.9902 77.3 57.8777C93.5276 51.3557 91.2162 39.5837 107.017 32.8883C123.869 25.7487 144.409 31.5447 157.781 40.991C158.766 41.6866 177.208 55.1348 181.723 78.8141C184.835 95.1293 177.797 97.7543 180.478 115.841C183.173 134.029 190.911 135.579 195.5 155.357C198.079 166.462 203.081 188.017 193.358 196.995C180.026 209.307 154.879 183.315 122.212 194.405C103.133 200.883 105.674 211.795 86.283 217.58C62.0291 224.815 32.9693 215.226 15.7801 196.69Z" fill="white"/>
</mask>
<g mask="url(#mask0_117_5659)">
<path d="M104.342 134.848C118.366 130.964 129.573 139.417 133.458 153.442L148.246 221.224L94.3449 221.303L89.9991 167.753C86.1149 153.728 90.3175 138.733 104.342 134.848Z" fill="#FFCFCD"/>
</g>
<path d="M49.8516 123.466L49.8676 122.097C49.8835 118.181 53.0832 115.029 56.9992 115.045L58.8776 115.061C62.7937 115.077 65.9456 118.277 65.9296 122.193L65.9137 123.562C65.8978 127.478 62.6981 130.63 58.7821 130.598H56.9037C52.9876 130.566 49.8357 127.382 49.8516 123.466Z" fill="#FFCFCD"/>
<path d="M49.9473 108.057L49.9633 106.465C49.9792 102.613 53.1152 99.5086 56.9675 99.5404H58.5753C62.4118 99.5722 65.5159 102.708 65.5 106.561V108.152C65.4682 112.005 62.3322 115.109 58.4798 115.077H56.8879C53.0356 115.061 49.9314 111.909 49.9473 108.057Z" fill="#FFCFCD"/>
<path d="M129.447 171.557H137.422L137.39 106.815H135.066C119.036 106.815 106.062 119.821 106.078 135.835V148.22C106.094 161.114 116.553 171.573 129.447 171.557Z" fill="#FFCFCD"/>
<path d="M105.838 138.366V144.065C105.838 148.252 107.159 153.171 109.658 157.039L113.399 162.85" stroke="#FFAEAB" stroke-width="0.509402" stroke-miterlimit="10"/>
<path d="M58.6562 101.992C61.5853 101.992 63.9732 104.38 63.9732 107.309C63.9732 110.238 61.5853 112.626 58.6562 112.626V101.992Z" fill="#FFAEAB"/>
<path d="M58.6562 117.513C61.5853 117.513 63.9732 119.901 63.9732 122.83C63.9732 125.759 61.5853 128.147 58.6562 128.147V117.513Z" fill="#FFAEAB"/>
<path d="M49.9473 92.0426L49.9633 90.4507C49.9792 86.5984 52.6854 83.4942 55.9965 83.5261H57.3655C60.6766 83.542 63.351 86.6939 63.3351 90.5463L63.3191 92.1381C63.3032 95.9905 60.597 99.0947 57.2859 99.0628H55.9169C52.6058 99.031 49.9314 95.895 49.9473 92.0426Z" fill="#FFCFCD"/>
<path d="M57.4453 85.9776C59.9605 85.9776 62.014 88.3654 62.014 91.2945C62.014 94.2235 59.9605 96.6114 57.4453 96.6114V85.9776Z" fill="#FFAEAB"/>
<path d="M115.787 62.6565H115.819L125.832 74.0385L132.231 81.3452C135.542 85.1339 137.373 89.9891 137.373 95.0195L137.389 119.917L121.009 119.932V94.6374C120.993 93.8256 120.706 93.0296 120.165 92.4247L114.323 85.8343C108.337 79.0211 108.99 68.6579 115.787 62.6565Z" fill="#FFCFCD"/>
<path d="M115.82 62.6565L119.625 71.6506H123.732L115.82 62.6565Z" fill="#FFB6B6"/>
<path d="M37.8343 133.783C39.4492 129.594 37.3662 124.866 33.1766 123.227C28.9637 121.612 24.2358 123.695 22.6208 127.908C20.9825 132.098 23.0889 136.826 27.2785 138.441C31.4914 140.079 36.1959 137.996 37.8343 133.783Z" fill="#FDC854"/>
<path d="M29.3603 136.732C28.9546 136.732 28.5333 136.654 28.0964 136.498C27.1367 136.124 26.5048 135.609 26.2006 134.953C25.9197 134.368 25.8963 133.689 26.1069 132.894L27.2538 133.198C27.0197 134.134 27.1367 134.836 28.5177 135.375C30.1092 135.983 30.788 134.79 30.9752 134.251C31.2795 133.455 31.4433 132.636 29.9688 131.466H29.9454L29.6879 131.255C28.8219 130.553 28.2836 129.851 28.0964 129.079C27.9091 128.306 28.1198 127.627 28.307 127.113C28.6113 126.317 29.1496 125.708 29.7816 125.357C30.5305 124.983 31.3965 124.959 32.3093 125.31C33.2689 125.661 33.8541 126.2 34.1583 126.902C34.4392 127.581 34.3456 128.306 34.2519 128.868L33.0817 128.657C33.2689 127.557 33.1519 126.902 31.888 126.41C30.2965 125.802 29.6411 126.996 29.4305 127.534C29.1262 128.33 28.9623 129.149 30.4369 130.319H30.4603L30.7178 130.53C31.5838 131.232 32.1221 131.934 32.3093 132.706C32.4965 133.479 32.2859 134.158 32.0987 134.672C31.7944 135.468 31.2795 136.077 30.6241 136.428C30.234 136.631 29.8128 136.732 29.3603 136.732Z" fill="#F89F4F"/>
<path d="M28.4946 137.341L27.3711 136.919L27.8158 135.726L28.9392 136.17L28.4946 137.341Z" fill="#F89F4F"/>
<path d="M32.8715 126.13L31.7715 125.708L32.2162 124.515L33.3396 124.936L32.8715 126.13Z" fill="#F89F4F"/>
<path d="M58.7564 157.812C59.8259 153.465 57.1522 149.094 52.8045 148.024C48.4568 146.955 44.0858 149.605 43.0163 153.953C41.9468 158.301 44.5973 162.695 48.945 163.764C53.2927 164.834 57.6869 162.16 58.7564 157.812Z" fill="#EFEEFE"/>
<path d="M49.8739 159.951L46.7816 156.162C46.4329 155.743 46.2004 155.232 46.1539 154.697C45.9679 152.488 48.5951 150.652 50.6178 152.233C50.6643 152.264 50.7109 152.302 50.7574 152.349L51.5711 153.046L52.6174 152.791C52.6794 152.775 52.7414 152.767 52.8034 152.767C55.3376 152.302 56.8023 155.162 55.6166 157.022C55.3143 157.464 54.8726 157.812 54.3843 158.022L49.8739 159.951Z" fill="#F95F6A"/>
<path d="M34.9497 166.451C36.2892 162.237 33.9451 157.716 29.7032 156.377C25.4614 155.037 20.9404 157.382 19.6288 161.623C18.2893 165.865 20.6335 170.386 24.8753 171.698C29.0892 173.037 33.6102 170.693 34.9497 166.451Z" fill="#F9E0D2"/>
<path d="M28.1946 161.149L28.5295 163.354L30.5388 164.33L28.5295 165.307L28.2504 167.54L26.6876 165.921L24.483 166.34L25.5434 164.358L24.4551 162.405L26.6597 162.768L28.1946 161.149Z" fill="#FFB73F"/>
<path d="M30.1914 185.466V193.59C30.1914 194.744 31.1443 195.697 32.2977 195.697H37.9143L40.0957 198.555L42.3022 195.697H47.9189C49.0723 195.697 50 194.744 50 193.59V185.466C50 184.313 49.0723 183.385 47.9189 183.385H32.2977C31.1443 183.385 30.1914 184.313 30.1914 185.466Z" fill="#F95F6A"/>
<path d="M37.6108 194.142C36.7583 194.142 36.0813 193.515 35.9559 192.713C35.9058 192.287 35.8306 191.885 35.7303 191.459L35.4043 189.955C35.4043 189.027 36.1565 188.3 37.0843 188.3H42.8263V193.641L41.4973 194.142H37.6108Z" fill="#F9E0D2"/>
<path d="M42.8307 188.3L41.0254 185.015C40.8498 184.689 40.4737 184.564 40.1227 184.664L39.8218 184.789C39.5209 184.89 39.3203 185.166 39.3203 185.492V188.3" fill="#F9E0D2"/>
<path d="M44.7839 193.641H42.8281V188.3H44.7839V193.641Z" fill="#F9E0D2"/>
<path d="M199.778 82.2123C199.778 75.1513 194.051 69.4451 186.99 69.4451C179.929 69.4451 174.223 75.1513 174.223 82.2123C174.223 89.2733 179.929 95 186.99 95C194.051 95 199.778 89.2733 199.778 82.2123Z" fill="#F9E0D2"/>
<path d="M176.419 88.0417C177.938 86.2764 179.929 85.3322 181.058 84.9217C181.085 84.908 181.119 84.8943 181.16 84.8806C181.243 84.867 181.332 84.8464 181.427 84.8191C182.782 84.5317 183.952 84.2854 185.163 84.0185C185.327 83.8543 185.533 83.7312 185.758 83.7517C185.861 83.7517 185.902 83.7928 185.984 83.8338C185.998 83.8338 186.011 83.8338 186.025 83.8338L186.251 82.2123C185.84 82.0686 185.491 81.8017 185.307 81.4117C185.101 80.9396 185.204 80.447 185.286 80.2007C185.327 80.0981 185.389 79.9954 185.45 79.9133C185.43 79.277 185.574 78.5997 185.82 78.0865C185.902 77.9428 186.066 77.5939 186.354 77.286C186.21 77.1628 186.107 76.9576 186.066 76.7934C185.943 76.2597 186.374 75.726 186.723 75.4797C187.339 75.0692 188.098 75.2539 188.386 75.3566C188.386 75.3566 188.447 75.3771 188.488 75.3976C189.515 75.8081 190.561 77.4092 190.397 78.7023C190.377 78.9897 190.295 79.1539 190.212 79.2976C190.199 79.2976 190.192 79.3044 190.192 79.3181C190.192 79.3318 190.192 79.3455 190.192 79.3591C190.206 79.3728 190.226 79.3865 190.254 79.4002C190.582 79.5439 190.705 79.9339 190.561 80.2418C190.418 80.5291 190.11 80.6728 189.802 80.5907C189.761 80.7549 189.658 80.9602 189.515 81.1449L189.166 83.8543C189.268 83.9159 189.371 83.998 189.453 84.1212C189.535 84.217 189.597 84.3059 189.638 84.388L192.121 85.3938L193.456 85.8043C194.482 86.1327 195.365 86.8306 195.898 87.7543C196.247 88.329 196.678 89.068 197.13 89.889C198.792 87.7338 199.778 85.0449 199.778 82.1096C199.778 75.0487 194.051 69.3424 186.99 69.3424C179.929 69.3424 174.223 75.0487 174.223 82.1096C174.223 84.4701 174.859 86.6869 175.967 88.5753C176.118 88.4111 176.268 88.2332 176.419 88.0417Z" fill="#FDC854"/>
<path d="M193.457 85.8044L192.123 85.3938L192.472 85.5375C192.568 86.2491 192.65 86.988 192.718 87.7543C192.814 88.7259 192.889 89.7248 192.944 90.7511C193.19 91.449 193.478 92.1743 193.806 92.9269C195.079 92.1059 196.208 91.0796 197.131 89.889C196.68 89.068 196.249 88.3291 195.9 87.7543C195.366 86.8307 194.484 86.1328 193.457 85.8044Z" fill="#B0C5FF"/>
<path d="M180.854 85.1475C180.895 85.0449 180.977 84.9628 181.059 84.9218C179.93 85.3323 177.939 86.2765 176.42 88.0417C176.27 88.2333 176.119 88.4112 175.969 88.5754C176.769 89.9301 177.796 91.1206 179.007 92.0854C179.13 91.5243 179.253 90.9564 179.376 90.3817C179.828 88.5343 180.32 86.7691 180.854 85.1475Z" fill="#D2DCF7"/>
<path d="M192.961 91.3464C192.961 91.1549 192.954 90.9564 192.941 90.7512C192.886 89.7249 192.811 88.7259 192.715 87.7544C192.824 88.9038 192.906 90.1012 192.961 91.3464Z" fill="#D2DCF7"/>
<path d="M179.704 90.4022C180.155 88.4522 180.874 86.5228 181.428 84.8191C181.332 84.8465 181.243 84.867 181.161 84.8807C181.12 84.8944 181.086 84.9081 181.058 84.9218C180.976 84.9628 180.894 85.0449 180.853 85.1475C180.32 86.7691 179.827 88.5343 179.375 90.3817C179.252 90.9564 179.129 91.5243 179.006 92.0854C179.088 92.1538 179.177 92.2222 179.273 92.2906C179.41 91.6612 179.553 91.0317 179.704 90.4022Z" fill="#D2DCF7"/>
<path d="M187.279 85.7428L186.889 86.0917L188.325 94.4459L188.223 94.8358C188.414 94.8085 188.606 94.7811 188.798 94.7537C188.757 93.5427 188.674 92.2701 188.49 90.9769C188.202 89.068 187.792 87.3028 187.279 85.7428Z" fill="#D2DCF7"/>
<path d="M186.027 83.8763V83.8339C186.013 83.8339 185.999 83.8339 185.984 83.8339C185.999 83.848 186.013 83.8621 186.027 83.8763Z" fill="#D2DCF7"/>
<path d="M186.23 85.6196C185.983 85.517 185.655 85.3733 185.327 85.127C185.06 84.9217 184.855 84.6959 184.69 84.5317C184.772 84.4291 184.875 84.2854 185.019 84.1417C185.06 84.1007 185.108 84.0596 185.162 84.0186C183.951 84.2854 182.781 84.5317 181.427 84.8191C180.873 86.5227 180.154 88.4522 179.703 90.4022C179.552 91.0316 179.408 91.6611 179.271 92.2906C180.667 93.3579 182.33 94.1584 184.116 94.569L186.887 86.0917L186.23 85.6196Z" fill="#D2DCF7"/>
<path d="M192.717 87.7543C192.648 86.988 192.566 86.2491 192.47 85.5375L192.121 85.3938L189.638 84.3881C189.679 84.4838 189.706 84.5591 189.72 84.6138C189.412 84.6549 189.002 84.7575 188.57 84.9423C188.098 85.127 187.749 85.3733 187.483 85.558L187.277 85.7428C187.79 87.3028 188.201 89.068 188.488 90.9769C188.673 92.2701 188.755 93.5427 188.796 94.7537C190.315 94.5485 191.752 94.0558 193.045 93.3579C193.031 92.6737 193.004 92.0032 192.963 91.3464C192.908 90.1011 192.826 88.9038 192.717 87.7543Z" fill="#B0C5FF"/>
<path d="M186.888 86.0917L184.117 94.569C185.041 94.7742 186.006 94.8769 186.991 94.8769C187.401 94.8769 187.812 94.8632 188.222 94.8358L188.325 94.4458L186.888 86.0917Z" fill="#F95F6A"/>
<path d="M186.027 83.8749C186.089 83.916 186.171 83.9775 186.274 84.0391C186.54 84.1828 186.787 84.2444 186.931 84.2649C187.054 84.2444 187.69 84.0391 188.224 83.9159C188.326 83.8954 188.49 83.8544 188.696 83.8339C188.846 83.8065 188.976 83.7928 189.086 83.7928C189.113 83.8202 189.14 83.8407 189.168 83.8544L189.517 81.1449C189.435 81.2681 189.332 81.3913 189.209 81.5144C188.655 82.4176 187.649 83.0949 186.684 82.8896C186.506 82.8486 186.342 82.7802 186.192 82.6844L186.253 82.2123L186.027 83.8339V83.8749Z" fill="#F6A19E"/>
<path d="M186.928 84.2649C186.941 84.2924 186.948 84.3267 186.948 84.368V84.3473C186.948 84.3199 186.941 84.2924 186.928 84.2649Z" fill="#F6A19E"/>
<path d="M187.996 82.2739C187.462 82.4175 186.805 82.4175 186.251 82.2123L186.189 82.6844C186.34 82.7802 186.504 82.8486 186.682 82.8896C187.647 83.0949 188.653 82.4176 189.207 81.5144C188.899 81.8428 188.468 82.1302 187.996 82.2739Z" fill="#F26D6D"/>
<path d="M190.195 79.3605C190.195 79.3464 190.195 79.3322 190.195 79.3181C190.181 79.3322 190.166 79.3464 190.152 79.3605C190.166 79.3605 190.181 79.3605 190.195 79.3605Z" fill="#F6A19E"/>
<path d="M185.8 79.6671C186.211 79.585 186.478 80.0776 187.34 80.5497C187.812 80.796 188.407 81.1039 188.859 80.8781C189.146 80.7344 189.31 80.447 189.372 80.2007C189.331 80.1049 189.317 79.9955 189.331 79.8723C189.331 79.8723 189.337 79.8586 189.351 79.8313C189.365 79.7902 189.379 79.7423 189.392 79.6876C189.42 79.6465 189.447 79.6055 189.474 79.5644C189.659 79.1334 189.885 78.3534 189.556 77.7171C189.474 77.5323 189.166 76.9576 188.674 76.8755C188.51 76.855 188.407 76.896 187.237 77.3271C186.929 77.4297 186.785 77.4708 186.601 77.4297C186.505 77.3887 186.423 77.3408 186.354 77.286C186.067 77.5939 185.903 77.9429 185.821 78.0866C185.574 78.5997 185.431 79.2771 185.451 79.9134C185.554 79.7902 185.656 79.7081 185.8 79.6671Z" fill="#F6A19E"/>
<path d="M187.997 82.2738C188.469 82.1302 188.9 81.8428 189.208 81.5144C189.331 81.3912 189.433 81.2681 189.515 81.1449C189.659 80.9602 189.762 80.7549 189.803 80.5907C189.775 80.577 189.741 80.5633 189.7 80.5497C189.536 80.4881 189.433 80.3444 189.372 80.2007C189.31 80.447 189.146 80.7344 188.859 80.8781C188.407 81.1039 187.812 80.796 187.34 80.5497C186.478 80.0776 186.211 79.5849 185.8 79.667C185.657 79.7081 185.554 79.7902 185.451 79.9133C185.39 79.9955 185.328 80.0981 185.287 80.2007C185.205 80.447 185.102 80.9397 185.308 81.4118C185.492 81.8018 185.841 82.0686 186.252 82.2123C186.806 82.4175 187.463 82.4175 187.997 82.2738Z" fill="#2E3192"/>
<path d="M189.33 79.8736C189.344 79.8595 189.351 79.8454 189.351 79.8312C189.337 79.8595 189.33 79.8736 189.33 79.8736Z" fill="#2E3192"/>
<path d="M187.236 77.3271C188.406 76.896 188.509 76.855 188.673 76.8755C189.166 76.9576 189.474 77.5323 189.556 77.7171C189.884 78.3534 189.658 79.1334 189.474 79.5644C189.638 79.3592 189.905 79.277 190.151 79.3592C190.165 79.3455 190.178 79.3318 190.192 79.3181C190.192 79.3044 190.199 79.2976 190.213 79.2976C190.295 79.1539 190.377 78.9897 190.397 78.7023C190.562 77.4092 189.515 75.8081 188.489 75.3976C188.447 75.3771 188.386 75.3566 188.386 75.3566C188.099 75.2539 187.339 75.0692 186.723 75.4797C186.374 75.726 185.943 76.2597 186.066 76.7934C186.107 76.9576 186.21 77.1629 186.354 77.286C186.422 77.3407 186.504 77.3886 186.6 77.4297C186.785 77.4707 186.929 77.4297 187.236 77.3271Z" fill="#2E3192"/>
<path d="M189.475 79.5644C189.448 79.6055 189.42 79.6465 189.393 79.6876C189.379 79.7423 189.365 79.7902 189.352 79.8313C189.352 79.8449 189.345 79.8586 189.331 79.8723C189.318 79.9955 189.331 80.1049 189.372 80.2007C189.434 80.3444 189.537 80.4881 189.701 80.5497C189.742 80.5634 189.776 80.577 189.803 80.5907C190.111 80.6728 190.419 80.5291 190.563 80.2418C190.707 79.9339 190.583 79.5439 190.255 79.4002C190.228 79.3865 190.207 79.3728 190.193 79.3592C190.18 79.3592 190.166 79.3592 190.152 79.3592C189.906 79.2771 189.639 79.3592 189.475 79.5644Z" fill="#F6A19E"/>
<path d="M185.02 84.1417C184.876 84.2854 184.774 84.429 184.691 84.5317C184.856 84.6959 185.061 84.9217 185.328 85.1269C185.656 85.3733 185.985 85.5169 186.231 85.6196L186.949 84.3675C186.949 84.3264 186.942 84.2922 186.929 84.2648C186.785 84.2443 186.539 84.1827 186.272 84.0391C186.169 83.9775 186.087 83.9159 186.026 83.8749C186.012 83.8612 185.998 83.8475 185.985 83.8338C185.902 83.7927 185.861 83.7517 185.759 83.7517C185.533 83.7312 185.328 83.8543 185.164 84.0185C185.109 84.0596 185.061 84.1006 185.02 84.1417Z" fill="#B0C5FF"/>
<path d="M188.693 83.8339C188.488 83.8544 188.323 83.8954 188.221 83.916C187.687 84.0391 187.051 84.2444 186.928 84.2649C186.941 84.2923 186.948 84.3197 186.948 84.347L186.989 84.2854L187.482 85.5581C187.749 85.3733 188.098 85.127 188.57 84.9423C189.001 84.7575 189.411 84.6549 189.719 84.6139C189.706 84.5591 189.678 84.4839 189.637 84.3881C189.596 84.306 189.535 84.217 189.452 84.1212C189.37 83.9981 189.268 83.916 189.165 83.8544C189.138 83.8407 189.11 83.8202 189.083 83.7928C188.974 83.7928 188.843 83.8065 188.693 83.8339Z" fill="#B0C5FF"/>
<path d="M186.99 84.2854L186.949 84.347V84.3675L186.23 85.6196L186.887 86.0917L187.277 85.7428L187.483 85.558L186.99 84.2854Z" fill="#F95F6A"/>
<path d="M188.156 24.4991C188.156 17.8928 182.792 12.5441 176.186 12.5441C169.579 12.5441 164.23 17.8928 164.23 24.4991C164.23 31.1213 169.579 36.4701 176.186 36.4701C182.792 36.4701 188.156 31.1213 188.156 24.4991Z" fill="#D3D5FC"/>
<path d="M188.156 24.4991C188.156 17.8928 182.792 12.5441 176.186 12.5441C169.579 12.5441 164.23 17.8928 164.23 24.4991C164.23 31.1213 169.579 36.4701 176.186 36.4701C182.792 36.4701 188.156 31.1213 188.156 24.4991Z" fill="#EFEEFE"/>
<mask id="mask1_117_5659" style="mask-type:luminance" maskUnits="userSpaceOnUse" x="164" y="12" width="25" height="25">
<path d="M188.155 24.5071C188.155 17.8992 182.798 12.5441 176.192 12.5441C169.585 12.5441 164.229 17.8992 164.229 24.5071C164.229 31.1134 169.585 36.4701 176.192 36.4701C182.798 36.4701 188.155 31.1134 188.155 24.5071Z" fill="white"/>
</mask>
<g mask="url(#mask1_117_5659)">
<path d="M179.512 27.8898C181.406 26.4252 182.091 24.9766 184.049 26.3616C186.452 28.049 191.419 31.6466 192.517 32.8564C192.517 32.8564 200.047 34.2255 203.088 34.7349L202.674 36.2471C202.674 36.2471 193.775 36.4063 190.703 35.8969C187.614 35.4034 179.512 27.8898 179.512 27.8898Z" fill="#FFC5AE"/>
<path d="M174.464 21.2357H173.971C173.382 21.2357 172.904 20.7581 172.904 20.1691V18.7365H174.464V21.2357Z" fill="#2E3192"/>
<path d="M185.115 46.1328C185.847 45.9577 186.341 45.2891 186.309 44.5409C186.15 40.7204 185.672 36.4064 184.59 31.7262C184.112 29.6568 183.571 27.7306 182.982 25.9318C180.679 25.4224 178.381 24.913 176.089 24.4036L170.74 26.4889C170.358 29.5453 170.087 32.9838 170.056 36.7725C170.04 40.195 170.231 43.3629 170.517 46.1805C170.549 46.4671 170.772 46.7058 171.059 46.7536C172.889 47.0401 175.086 47.2312 177.537 47.1516C180.467 47.072 183.029 46.6422 185.115 46.1328Z" fill="#F9E0D2"/>
<path d="M185.72 45.9895C186.102 45.8781 186.357 45.5438 186.341 45.1618C186.214 41.198 185.72 36.6611 184.59 31.7263C184.112 29.6568 183.746 27.6988 183.173 25.9C181.693 25.5657 180.037 25.2791 178.557 24.9448C178.079 25.0244 176.726 24.133 176.344 24.6901C175.834 25.4383 176.774 27.5396 176.869 27.8739C177.363 29.7046 178.7 36.884 180.515 46.9447C182.489 46.7377 184.24 46.3716 185.72 45.9895Z" fill="#FFC5AE"/>
<path d="M173.812 21.0288L174.306 25.104L176.137 25.9318L177.585 24.7379L177.028 20.408L173.812 21.0288Z" fill="#FB9C98"/>
<path d="M177.028 20.408L173.812 21.0288L173.844 21.3312C174.179 22.7162 175.579 24.0056 176.901 23.7191C177.092 23.6766 177.267 23.6076 177.426 23.5121L177.028 20.408Z" fill="#F26D6D"/>
<path d="M176.63 17.2401C176.758 17.3038 177.665 17.845 177.983 18.9116C178.413 20.3283 177.713 22.35 176.28 22.6684C174.911 22.9549 173.462 21.5541 173.192 20.1055C172.969 18.816 173.622 17.2242 174.784 16.8739C175.596 16.6352 176.391 17.0968 176.63 17.2401Z" fill="#FB9C98"/>
<path d="M177.968 15.9188C178.302 16.5715 176.869 17.8609 176.726 17.9883C175.516 19.0867 173.526 19.7871 172.953 19.1344C172.523 18.6569 172.906 17.5266 173.431 16.858C174.688 15.2343 177.57 15.1547 177.968 15.9188Z" fill="#2E3192"/>
<path d="M172.795 19.9782C172.732 19.612 172.971 19.2459 173.353 19.1822C173.719 19.1026 174.069 19.3573 174.149 19.7235C174.212 20.0896 173.973 20.4398 173.591 20.5194C173.225 20.5831 172.875 20.3443 172.795 19.9782Z" fill="#FB9C98"/>
<path d="M167.589 32.2515C166.92 31.4715 166.22 30.6755 165.663 29.8318C164.294 30.9621 163.131 32.2038 162.542 33.5091C161.969 34.7826 162.511 36.3426 163.593 37.9345C164.962 37.9504 166.474 37.6002 167.764 37.0908C167.318 36.5814 166.904 36.1516 166.554 35.881C166.554 35.881 167.684 34.9736 169.021 33.732C168.432 33.2066 167.955 32.6972 167.589 32.2515Z" fill="#F9E0D2"/>
<path d="M169.021 33.732C170.756 32.1401 172.857 30.0229 173.271 28.7017C174.035 26.3775 172.38 25.9 172.38 25.9C172.38 25.9 168.814 26.7118 165.662 29.8319C166.219 30.6756 166.92 31.4716 167.588 32.2516C167.954 32.6973 168.432 33.2067 169.021 33.732Z" fill="#F9E0D2"/>
<path d="M176.184 25.9318L176.916 26.5844L176.629 27.6669L175.754 26.9347L176.184 25.9318Z" fill="#F95F6A"/>
<path d="M176.632 27.6669C176.632 27.6669 180.166 32.2038 177.428 37.7754L175.629 34.3688L176.632 27.6669Z" fill="#F95F6A"/>
</g>
<path opacity="0.2" d="M162.971 63.4843C162.971 54.9996 156.094 48.1227 147.61 48.1227C139.125 48.1227 132.248 54.9996 132.248 63.4843C132.248 71.9691 139.125 78.846 147.61 78.846C156.094 78.846 162.971 71.9691 162.971 63.4843Z" fill="#3EB5AE"/>
<mask id="mask2_117_5659" style="mask-type:luminance" maskUnits="userSpaceOnUse" x="132" y="48" width="31" height="31">
<path d="M162.975 63.4795C162.975 54.9947 156.097 48.1178 147.614 48.1178C139.129 48.1178 132.252 54.9947 132.252 63.4795C132.252 71.9626 139.129 78.8411 147.614 78.8411C156.097 78.8411 162.975 71.9626 162.975 63.4795Z" fill="white"/>
</mask>
<g mask="url(#mask2_117_5659)">
<path d="M134.476 79.3235C132.614 77.1585 131.133 73.5927 132.55 71.3322C133.935 69.1673 136.801 70.0906 138.09 67.9256C139.395 65.7288 137.023 63.8185 137.374 60.8258C137.931 55.9865 145.19 51.5292 149.774 53.5827C152.21 54.6811 154.12 57.7375 153.77 60.1254C153.34 62.9589 149.965 62.9112 149.361 65.9835C148.772 68.9444 151.621 70.4248 150.714 72.6216C149.615 75.2323 145.11 74.0703 143.662 76.856C142.356 79.3871 145.158 82.0137 143.869 83.1121C142.436 84.322 137.294 82.555 134.476 79.3235Z" fill="#F95F6A"/>
<path d="M159.199 85.2134C159.199 85.2134 155.347 82.6505 152.768 75.3279C150.205 67.9893 152.051 64.6623 153.675 65.0125C155.315 65.3786 157.05 64.7578 160.6 81.1382C160.6 81.1382 167.222 78.6549 175.707 77.9704L175.85 78.6071C175.85 78.6071 163.402 86.3755 159.199 85.2134Z" fill="#F89F4F"/>
<path d="M159.199 85.2134C159.273 85.2347 159.358 85.2506 159.454 85.2612C154.487 77.0312 154.073 68.7534 154.169 65.108C154.009 65.0761 153.85 65.0602 153.675 65.0125C152.051 64.6623 150.205 67.9893 152.768 75.3279C155.347 82.6505 159.199 85.2134 159.199 85.2134Z" fill="#F26D6D"/>
<path d="M145.253 66.1746C144.871 65.3309 143.74 65.1398 143.072 65.7925C142.849 66.0154 142.626 66.2435 142.403 66.477C138.376 70.8388 137.373 76.4263 137.198 80.4378C137.134 82.2844 138.28 83.9718 140.047 84.5608C141.151 84.9322 142.287 85.2878 143.454 85.6274C146.701 86.5666 150.936 87.6013 153.769 88.1107C154.024 87.6331 152.926 87.3625 153.18 86.8849C151.35 85.7706 149.248 84.6085 147.068 83.5101C144.887 82.4118 142.785 81.4566 140.795 80.6448C141.989 78.0022 142.897 76.0442 143.406 74.9617C143.406 74.9617 146.431 69.5016 145.444 66.6521C145.391 66.4823 145.327 66.3231 145.253 66.1746Z" fill="#FDC854"/>
<path d="M151.223 65.4582L147.291 65.4423L147.673 59.807H150.809L151.223 65.4582Z" fill="#FB9C98"/>
<path d="M150.936 55.9228C151.637 56.6869 151.541 57.9285 151.557 58.8837C151.573 60.0457 150.952 61.6058 149.631 61.765C148.294 61.9242 146.75 60.2049 146.702 58.4539C146.67 57.0052 147.657 55.3974 148.978 55.2223C149.663 55.1268 150.443 55.3815 150.936 55.9228Z" fill="#FB9C98"/>
<path d="M151.875 55.6045C151.589 55.2224 151.047 54.6334 150.188 54.315C150.082 54.2726 149.976 54.2354 149.869 54.2036C149.869 54.193 149.869 54.1877 149.869 54.1877C149.859 54.1877 149.848 54.1877 149.838 54.1877C148.5 53.8216 146.988 54.1877 146.893 54.6971C146.845 54.9199 147.084 55.1906 147.45 55.4453C147.195 55.6841 146.94 55.9547 146.702 56.2731C145.667 57.658 145.619 59.1225 145.619 59.6001C147.593 59.6797 149.328 58.645 149.949 57.069C150.14 56.5596 150.538 56.1616 151.047 55.9865C151.43 55.8592 151.716 55.7 151.875 55.6045Z" fill="#F95F6A"/>
<path d="M157.432 76.2989C157.734 74.0385 157.464 65.9198 153.404 64.5668C153.15 64.5031 152.895 64.45 152.64 64.4076C152.375 64.3757 152.104 64.3439 151.828 64.3121C151.499 64.2908 151.17 64.2961 150.841 64.328C148.326 64.4872 146.289 64.7578 144.697 65.0602C142.134 65.5378 141.211 70.7114 141.815 73.0992L142.962 79.5464C143.296 80.8835 143.169 81.4407 142.723 82.746C142.516 83.3669 141.768 84.3539 141.768 84.3539C150.077 84.8314 158.403 83.1122 158.403 83.1122C158.403 83.1122 157.113 78.7027 157.432 76.2989Z" fill="#FDC854"/>
<path d="M157.433 76.2989C157.735 74.0384 157.465 65.9198 153.405 64.5667C153.151 64.503 152.896 64.45 152.641 64.4075C152.588 64.3969 152.54 64.3916 152.498 64.3916C152.519 64.4022 152.541 64.4181 152.562 64.4394C158.101 68.9285 156.128 77.3336 155.905 79.0847C155.682 80.7243 156.159 83.2077 156.223 83.4942C157.592 83.2872 158.404 83.1121 158.404 83.1121C158.404 83.1121 157.115 78.7026 157.433 76.2989Z" fill="#F89F4F"/>
<path d="M147.61 59.3772C147.61 58.9633 147.275 58.6131 146.861 58.6131C146.448 58.6131 146.113 58.9633 146.113 59.3772C146.113 59.7911 146.448 60.1254 146.861 60.1254C147.275 60.1254 147.61 59.7911 147.61 59.3772Z" fill="#FB9C98"/>
<path d="M148.024 67.4162C149.87 67.8301 151.988 66.5566 152.64 64.4076C152.035 64.3121 151.446 64.2802 150.841 64.328C148.613 64.4712 146.766 64.6941 145.254 64.9647C145.684 66.0154 146.703 67.1297 148.024 67.4162Z" fill="#FB9C98"/>
</g>
<path d="M168.654 36.9954L159.166 50.1921" stroke="#3EB5AE" stroke-width="1.13024" stroke-miterlimit="10" stroke-linecap="round" stroke-dasharray="1.94 1.94"/>
<path d="M161.744 73.545C161.967 73.545 175.227 77.5088 175.227 77.5088" stroke="#3EB5AE" stroke-width="1.13024" stroke-miterlimit="10" stroke-linecap="round" stroke-dasharray="1.94 1.94"/>
<path d="M185.798 67.1615L181.738 39.0966" stroke="#3EB5AE" stroke-width="1.13024" stroke-miterlimit="10" stroke-linecap="round" stroke-dasharray="1.94 1.94"/>
<path d="M98.5632 55.8751C98.5632 54.1718 97.1783 52.8027 95.475 52.8027C93.7716 52.8027 92.3867 54.1718 92.3867 55.8751C92.3867 57.5943 93.7716 58.9633 95.475 58.9633C97.1783 58.9633 98.5632 57.5943 98.5632 55.8751Z" stroke="#CE3A5E" stroke-width="4.17073" stroke-miterlimit="10"/>
<path d="M94.2174 54.9995C94.2174 52.5958 92.2594 50.6378 89.8556 50.6378C87.4519 50.6378 85.5098 52.5958 85.5098 54.9995C85.5098 57.4033 87.4519 59.3613 89.8556 59.3613C92.2594 59.3613 94.2174 57.4033 94.2174 54.9995Z" stroke="#F95F6A" stroke-width="4.17073" stroke-miterlimit="10"/>
<path d="M107.605 86.9805H70.5781V59.8389H107.605V86.9805Z" fill="#FDC854"/>
<path d="M108.879 55.8432H69.3203V59.8388H108.879V55.8432Z" fill="#FDC854"/>
<path d="M92.0043 86.9805H88.5977V59.8389H92.0043V86.9805Z" fill="#F95F6A"/>
<path d="M90.7934 55.8433H87.3867V59.8389H90.7934V55.8433Z" fill="#F95F6A"/>
<path d="M107.605 71.6984V75.105H70.5781V71.6984H107.605Z" fill="#F95F6A"/>
<path d="M70.5781 59.8389L107.605 63.2455V59.8389H70.5781Z" fill="#F89F4F"/>
<path d="M92.0043 61.8128V59.8389H88.5977V61.4944L92.0043 61.8128Z" fill="#CE3A5E"/>
<path d="M98.4353 102.931H81.2589C79.1258 102.931 77.3906 101.196 77.3906 99.0628C77.3906 96.9297 79.1258 95.2105 81.2589 95.2105H98.4353C100.553 95.2105 102.288 96.9297 102.288 99.0628C102.288 101.196 100.553 102.931 98.4353 102.931Z" fill="#F95F6A"/>
<path fill-rule="evenodd" clip-rule="evenodd" d="M83.2984 97.0411C83.7601 97.0411 84.158 97.2481 84.3968 97.5346C84.6515 97.8371 84.7629 98.2032 84.7629 98.5694C84.7629 98.9355 84.6515 99.3016 84.3968 99.6041C84.2907 99.7314 84.1633 99.8322 84.0148 99.9065L84.9221 101.1H83.9352L83.1711 100.098H82.7413V101.1H81.9453V97.0411H83.2984ZM82.7413 99.3016H83.2984C83.5531 99.3016 83.6964 99.222 83.8078 99.0947C83.9192 98.9673 83.9829 98.7763 83.9829 98.5694C83.9829 98.3624 83.9192 98.1714 83.8078 98.044C83.6964 97.9167 83.5531 97.8371 83.2984 97.8371H82.7413V99.3016Z" fill="white"/>
<path d="M87.8043 97.0411V97.8371H86.292V98.6808H87.8043V99.4608H86.292V100.304H87.8043V101.1H85.4961V97.0411H87.8043Z" fill="white"/>
<path d="M90.8903 97.0411V97.8371H89.378V98.6808H90.8903V99.4608H89.378V101.1H88.582V97.0411H90.8903Z" fill="white"/>
<path d="M93.9801 97.0411V97.8371H92.4678V98.6808H93.9801V99.4608H92.4678V100.304H93.9801V101.1H91.6719V97.0411H93.9801Z" fill="white"/>
<path fill-rule="evenodd" clip-rule="evenodd" d="M96.1129 97.0411C96.5745 97.0411 96.9725 97.2481 97.2272 97.5346C97.466 97.8371 97.5774 98.2032 97.5774 98.5694C97.5774 98.9355 97.466 99.3016 97.2272 99.6041C97.1211 99.7314 96.9937 99.8322 96.8451 99.9065L97.7366 101.1H96.7496L95.9855 100.098H95.5557V101.1H94.7598V97.0411H96.1129ZM95.5557 99.3016H96.1129C96.3676 99.3016 96.5108 99.222 96.6223 99.0947C96.7337 98.9673 96.7974 98.7763 96.7974 98.5694C96.7974 98.3624 96.7337 98.1714 96.6223 98.044C96.5108 97.9167 96.3676 97.8371 96.1129 97.8371H95.5557V99.3016Z" fill="white"/>
</svg>
